<?xml version="1.0" encoding="UTF-8" standalone="no"?>
<!-- Created with Inkscape (http://www.inkscape.org/) -->

<svg
   xmlns:dc="http://purl.org/dc/elements/1.1/"
   xmlns:cc="http://creativecommons.org/ns#"
   xmlns:rdf="http://www.w3.org/1999/02/22-rdf-syntax-ns#"
   xmlns:svg="http://www.w3.org/2000/svg"
   xmlns="http://www.w3.org/2000/svg"
   xmlns:xlink="http://www.w3.org/1999/xlink"
   xmlns:sodipodi="http://sodipodi.sourceforge.net/DTD/sodipodi-0.dtd"
   xmlns:inkscape="http://www.inkscape.org/namespaces/inkscape"
   width="1366"
   height="1080"
   viewBox="0 0 361.42082 285.75001"
   version="1.1"
   id="svg8"
   inkscape:version="0.92.4 (5da689c313, 2019-01-14)"
   sodipodi:docname="pattern.svg">
  <defs
     id="defs2">
    <pattern
       inkscape:collect="always"
       xlink:href="#pattern3459"
       id="pattern3830"
       patternTransform="matrix(0.24406482,-0.24406482,0.24406482,0.24406482,1046.8501,1691.782)" />
    <pattern
       inkscape:collect="always"
       xlink:href="#pattern3454"
       id="pattern3459"
       patternTransform="matrix(0.24406482,-0.24406482,0.24406482,0.24406482,1046.85,1691.782)" />
    <pattern
       inkscape:collect="always"
       xlink:href="#pattern2725"
       id="pattern3454"
       patternTransform="matrix(0.18708867,-0.18708867,0.18708867,0.18708867,1046.85,1691.782)" />
    <pattern
       patternUnits="userSpaceOnUse"
       width="196.23256"
       height="246.35863"
       patternTransform="matrix(0.26458333,0,0,0.26458333,1046.85,1691.782)"
       id="pattern2725">
      <path
         style="fill:#8c4303;fill-opacity:1;stroke:none;stroke-width:0.26458332px;stroke-linecap:butt;stroke-linejoin:miter;stroke-opacity:1"
         d="m 1088.7173,1726.6568 c -1.4449,1.5529 -3.8714,3.884 -7.4212,5.2771 -2.3889,0.9393 -5.3882,1.4673 -8.5198,0.9679 -2.5287,-0.4002 -5.1939,-1.4958 -7.3991,-3.3636 -0.6213,-0.5244 -1.208,-1.112 -1.748,-1.7564 -1.1254,-1.343 -2.0528,-2.9408 -2.6287,-4.6838 -1.0101,-2.8683 -0.9839,-6.228 -0.458,-9.9793 0.537,-3.5655 1.5579,-6.7923 2.5926,-11.1249 0.4208,-1.6829 0.8082,-3.4796 1.0834,-5.362 0.3397,-2.3235 0.5245,-4.8852 0.3354,-7.613 -0.1119,-1.8016 -0.4545,-3.6769 -1.0849,-5.5409 -0.8166,-2.4145 -2.0629,-4.6507 -3.6969,-6.5817 -0.3661,-0.4326 -0.7446,-0.8415 -1.1325,-1.2268 -1.3612,-1.2915 -2.7265,-2.1498 -3.818,-2.6919 -1.942,-0.9645 -2.6066,-0.8566 -2.5843,-0.7851 0.1086,0.3458 3.2979,1.9914 5.2862,4.2532 0.055,0.063 0.1092,0.1253 0.1628,0.1882 3.2079,3.9065 3.6213,7.8961 3.4704,8.9914 -0.077,0.5583 -0.134,0.4146 -0.019,2.0466 0.04,0.5742 0.075,1.1461 0.065,1.6605 -0,0.171 -0.011,0.312 -0.024,0.4042 -0.033,0.2336 -0.093,0.135 -0.1488,0.067 -0.058,-0.081 -0.1127,-0.134 -0.1416,0.1661 -0.039,0.4132 -0.052,1.4446 -0.1206,2.2208 -0.034,0.3891 -0.078,0.7186 -0.1189,0.8713 -0.041,0.1553 -0.075,0.1064 -0.094,-0.2104 -0.016,-0.2614 -0.025,-0.6902 -0.043,-1.1721 -0.018,-0.4914 -0.044,-1.0082 -0.089,-1.555 -0.02,-0.2373 -0.042,-0.475 -0.069,-0.7129 0,0 0,0 0,0 -0.033,-0.301 -0.073,-0.5965 -0.1187,-0.8849 -0.083,-0.5256 -0.1819,-0.9948 -0.2808,-1.3735 -0.1446,-0.5531 -0.2658,-0.8277 -0.331,-0.9245 -0.07,-0.1054 -0.1055,-0.068 -0.1591,-0.1044 -0.2887,-0.1867 -0.9816,-2.6354 -3.0486,-5.2236 -0.2626,-0.3288 -0.5266,-0.6294 -0.7856,-0.8904 -0.2511,-0.2532 -0.4691,-0.4381 -0.5465,-0.4757 -0.086,-0.041 0.014,0.098 0.1934,0.3291 0.197,0.2539 0.4272,0.5443 0.7019,0.9358 0.5604,0.7988 1.0138,1.6179 1.3214,2.3636 0.1859,0.4508 0.2723,0.7683 0.2846,0.8993 0.013,0.1381 -0.046,0.1034 -0.1522,-0.044 -0.3999,-0.5594 -0.812,-1.3218 -1.2119,-1.8813 -0.4369,-0.6127 -0.902,-1.166 -1.4001,-1.6383 -0.184,-0.1744 -0.3584,-0.3239 -0.5147,-0.4459 -0.2426,-0.1944 -0.431,-0.313 -0.4962,-0.3226 -0.098,-0.014 0.067,0.193 0.3155,0.5054 0,0 0,0 0,0 0.027,0.032 0.054,0.066 0.082,0.1003 0.3248,0.3973 0.6597,0.8326 0.9917,1.3684 0.4013,0.6479 0.6823,1.2667 0.7963,1.6409 0.1045,0.3441 0.043,0.3876 -0.1066,0.2359 -0.1559,-0.1584 -0.4197,-0.5302 -0.7838,-0.9872 -0.4154,-0.5215 -0.9478,-1.1332 -1.6301,-1.7006 -0.5102,-0.4466 -1.0858,-0.8626 -1.7244,-1.2265 -1.1487,-0.6545 -2.4727,-1.1223 -3.8485,-1.2895 -1.8404,-0.2307 -3.9152,0.064 -5.7387,0.9691 -0.042,0.021 -0.084,0.042 -0.126,0.064 -1.5453,0.7886 -2.8929,2.0243 -3.7971,3.47 -0.1317,0.2105 -0.253,0.4241 -0.3636,0.6397 -0.6807,1.3131 -0.9338,2.6374 -0.9594,3.6408 -0.026,1.0209 0.1738,1.6175 0.2934,1.8372 0.093,0.1703 0.1742,0.2134 0.226,-0.019 0.053,-0.2382 0.069,-0.7934 0.198,-1.6458 0.1168,-0.7709 0.3104,-1.591 0.6471,-2.435 0.128,-0.3208 0.2698,-0.6269 0.4236,-0.9166 0.2297,-0.4387 0.4917,-0.8484 0.7706,-1.2237 0.8764,-1.1792 1.9381,-2.0497 2.9135,-2.6161 0.3123,-0.1836 0.631,-0.3447 0.9494,-0.4845 1.2698,-0.5574 2.793,-0.887 4.3547,-0.7602 0.04,0 0.08,0.01 0.12,0.011 1.584,0.145 3.606,0.8372 5.2523,2.3999 0,0 0,0 0,0 0.2075,0.1845 0.4083,0.3842 0.602,0.5992 0.9217,1.0239 1.6147,2.3231 2.0908,3.7551 0.4747,1.4274 0.6848,2.8415 0.7514,3.9441 0,0.055 0.01,0.1101 0.01,0.1643 0.018,0.415 0.02,0.9726 0.017,1.5384 -0,0.6874 -0.021,1.3889 -0.076,2.1825 -0.055,0.7723 -0.1406,1.5414 -0.2542,2.2332 -0.1179,0.7188 -0.2448,1.2261 -0.3294,1.4839 -0.087,0.2647 -0.1463,0.333 -0.2038,0.404 -0.042,0.049 -0.084,0.1028 -0.1458,0.2764 -0.062,0.1743 -0.1477,0.485 -0.2592,0.968 -0.077,0.332 -0.1686,0.7599 -0.2561,1.1845 -0.016,0.077 -0.032,0.155 -0.048,0.2329 0,0 0,0 0,0 -0.076,0.3536 -0.1529,0.7206 -0.2247,1.0675 -0.1778,0.8661 -0.3154,1.5928 -0.4345,2.2718 -0.1141,0.6508 -0.2128,1.2663 -0.3178,1.9067 -0.1211,0.739 -0.2171,1.3088 -0.3833,2.2762 -0.2153,1.2534 -0.4351,2.5279 -0.6211,3.9251 -0.024,0.1823 -0.048,0.3649 -0.07,0.5479 -0.154,1.1671 -0.2543,2.3711 -0.2708,3.6013 -0.034,2.5812 0.3048,4.9852 0.9219,7.1365 0.2857,0.996 0.6181,1.894 0.9692,2.6965 0.3944,0.8671 0.8176,1.6181 1.2256,2.2548 1.3748,2.1457 3.1551,3.8636 5.0485,5.2669 0.389,0.2883 0.8093,0.5818 1.2625,0.8728 2.1509,1.3773 4.6945,2.4677 7.5543,2.9582 0.9642,0.1653 1.9192,0.254 2.8543,0.2711 2.3697,0.041 4.3567,-0.3841 5.7312,-0.8582 1.1649,-0.4018 1.9531,-0.8641 2.5806,-1.2487 0.3859,-0.2365 1.0674,-0.6669 1.6885,-1.0861 0.3484,-0.2354 0.7687,-0.5282 1.2201,-0.8677 1.2228,-0.9197 2.3845,-1.976 3.388,-3.2307 2.3547,-2.9441 1.6546,-3.4035 1.6374,-3.3892 -0,0 -0,0.01 -0.01,0.01 z"
         id="path2700"
         inkscape:connector-curvature="0"
         inkscape:path-effect="#path-effect2702;#path-effect2712"
         inkscape:original-d="m 1033.1861,1689.5838 c 7.4417,-3.5831 14.8831,-7.166 22.3242,-10.7487 7.4412,-3.5826 1.6539,30.3166 2.4805,45.4753 0.8266,15.1587 17.0879,-6.2014 30.5924,2.0671"
         transform="matrix(-3.7795276,0,0,-3.7795276,4115.2802,6566.2883)"
         sodipodi:nodetypes="ccsc" />
    </pattern>
    <inkscape:path-effect
       effect="spiro"
       id="path-effect2702"
       is_visible="true" />
    <inkscape:path-effect
       effect="skeletal"
       id="path-effect2712"
       is_visible="true"
       pattern="m 1160.6885,1292.929 c -0.9391,-4.3567 -2.9629,-8.4753 -5.8379,-11.8808 -1.8411,-2.1806 -4.0397,-4.0799 -6.555,-5.4282 -0.6575,-0.3525 -1.3547,-0.6723 -2.0986,-0.7284 -0.372,-0.028 -0.7518,0.012 -1.101,0.143 -0.3493,0.131 -0.6669,0.3555 -0.8858,0.6576 -0.2948,0.4068 -0.395,0.9282 -0.3802,1.4303 0.032,1.0801 0.5472,2.0769 0.9958,3.0599 0.7795,1.7081 1.3915,3.5106 1.5933,5.3773 0.062,0.5729 0.089,1.1669 0.344,1.6838 0.1244,0.2528 0.3023,0.4851 0.3621,0.7605 0.041,0.1897 0.023,0.3866 0.01,0.5802 -0.015,0.1936 -0.026,0.3921 0.028,0.5785 0.074,0.2544 0.2612,0.4573 0.4033,0.681 0.071,0.1118 0.1321,0.232 0.1602,0.3614 0.028,0.1295 0.021,0.2696 -0.038,0.388 -0.048,0.095 -0.127,0.1714 -0.2159,0.2296 -0.089,0.058 -0.1877,0.1 -0.2871,0.1372 -0.099,0.038 -0.2001,0.072 -0.2956,0.1191 -0.096,0.047 -0.1865,0.1058 -0.2566,0.1857 -0.106,0.1209 -0.1572,0.2811 -0.179,0.4404 -0.022,0.1593 -0.017,0.3208 -0.026,0.4814 -0.047,0.8721 -0.503,1.6946 -1.1523,2.2788 -0.08,0.072 -0.1636,0.1414 -0.2335,0.2235 -0.07,0.082 -0.1266,0.1791 -0.1425,0.2858 -0.017,0.1154 0.015,0.2346 0.074,0.3353 0.059,0.1007 0.1432,0.1845 0.2341,0.2577 0.1819,0.1463 0.3963,0.2573 0.5428,0.439 0.098,0.1219 0.1607,0.271 0.1868,0.4254 0.026,0.1543 0.016,0.3138 -0.02,0.466 -0.073,0.3045 -0.2505,0.5747 -0.4564,0.8105 -0.1493,0.1711 -0.3152,0.3278 -0.4538,0.5076 -0.1385,0.1799 -0.2507,0.3888 -0.2704,0.615 -0.019,0.2191 0.05,0.4382 0.1539,0.6321 0.1038,0.1939 0.2413,0.3672 0.3711,0.5447 0.1635,0.2235 0.318,0.4593 0.3983,0.7243 0.075,0.2481 0.082,0.5147 0.035,0.7697 -0.047,0.255 -0.1477,0.4985 -0.2809,0.721 -0.2665,0.4449 -0.6577,0.8005 -1.0603,1.1274 -0.7464,0.606 -1.5602,1.1418 -2.4581,1.4851 -0.4451,0.1701 -0.9079,0.292 -1.3483,0.4739 -0.4404,0.1819 -0.8662,0.432 -1.161,0.8064 -0.2706,0.3435 -0.4147,0.772 -0.4865,1.2034 -0.047,0.2838 -0.065,0.5771 -2e-4,0.8574 0.065,0.2803 0.2198,0.5478 0.4611,0.7045 0.2069,0.1345 0.4642,0.1789 0.7098,0.1542 0.2455,-0.025 0.4808,-0.1146 0.6984,-0.231 0.5466,-0.2922 0.9886,-0.7467 1.3826,-1.2251 0.394,-0.4785 0.7505,-0.989 1.1779,-1.4378 0.4812,-0.5053 1.0686,-0.9365 1.7471,-1.0993 0.3392,-0.081 0.6971,-0.093 1.0371,-0.015 0.34,0.078 0.661,0.2484 0.903,0.4996 0.1179,0.1225 0.2209,0.2664 0.3713,0.3457 0.1408,0.074 0.3058,0.082 0.4648,0.09 0.159,0.01 0.3244,0.018 0.4633,0.096 0.1493,0.083 0.2496,0.2364 0.3048,0.3982 0.055,0.1619 0.07,0.3342 0.086,0.5044 0.011,0.1221 0.023,0.2452 0.059,0.3622 0.036,0.1171 0.1,0.2292 0.197,0.3036 0.068,0.052 0.151,0.084 0.2361,0.095 0.085,0.011 0.1722,0 0.2548,-0.021 0.1651,-0.047 0.3088,-0.1505 0.4332,-0.2687 0.1245,-0.1181 0.2331,-0.2519 0.353,-0.3747 0.12,-0.1227 0.2541,-0.2363 0.4128,-0.3015 0.2159,-0.089 0.4591,-0.081 0.6901,-0.048 0.231,0.033 0.4593,0.091 0.6926,0.099 0.4092,0.013 0.8142,-0.1324 1.151,-0.3652 0.3368,-0.2327 0.6093,-0.549 0.8333,-0.8917 0.4478,-0.6855 0.7092,-1.4775 1.1395,-2.1742 0.4234,-0.6854 0.9988,-1.2609 1.5499,-1.8485 0.5512,-0.5875 1.0911,-1.2058 1.4203,-1.9411 0.2193,-0.4896 0.3385,-1.0167 0.4775,-1.5348 0.1391,-0.5182 0.3027,-1.0386 0.5979,-1.4866 0.2408,-0.3652 0.5616,-0.6708 0.8194,-1.0242 0.5425,-0.7436 0.7861,-1.6991 0.6657,-2.6117 z"
       copytype="single_stretched"
       prop_scale="0.26458332"
       scale_y_rel="false"
       spacing="0"
       normal_offset="0"
       tang_offset="0"
       prop_units="false"
       vertical_pattern="false"
       fuse_tolerance="0" />
  </defs>
  <sodipodi:namedview
     id="base"
     pagecolor="#ffffff"
     bordercolor="#666666"
     borderopacity="1.0"
     inkscape:pageopacity="0.0"
     inkscape:pageshadow="2"
     inkscape:zoom="0.175"
     inkscape:cx="544.44586"
     inkscape:cy="45.248162"
     inkscape:document-units="mm"
     inkscape:current-layer="layer1"
     showgrid="false"
     units="px"
     inkscape:showpageshadow="false"
     inkscape:window-width="1366"
     inkscape:window-height="705"
     inkscape:window-x="-8"
     inkscape:window-y="-8"
     inkscape:window-maximized="1" />
  <metadata
     id="metadata5">
    <rdf:RDF>
      <cc:Work
         rdf:about="">
        <dc:format>image/svg+xml</dc:format>
        <dc:type
           rdf:resource="http://purl.org/dc/dcmitype/StillImage" />
        <dc:title></dc:title>
      </cc:Work>
    </rdf:RDF>
  </metadata>
  <g
     inkscape:label="Layer 1"
     inkscape:groupmode="layer"
     id="layer1"
     transform="translate(0,-11.249987)">
    <g
       transform="matrix(1.0966747,0,0,1.0966747,-1053.4182,-1911.4471)"
       id="g2694"
       style="stroke-width:0.91184741;opacity:1">
      <rect
         y="1686.3571"
         x="798.36835"
         height="394.25903"
         width="677.33337"
         id="rect2684"
         style="opacity:1;fill:#f2f2f2;fill-opacity:1;fill-rule:evenodd;stroke:none;stroke-width:2.06533432;stroke-linecap:round;stroke-linejoin:bevel;stroke-miterlimit:4;stroke-dasharray:none;stroke-dashoffset:0;stroke-opacity:1;paint-order:stroke fill markers" />
      <path
         style="opacity:1;fill:url(#pattern3830);fill-opacity:1;fill-rule:evenodd;stroke:none;stroke-width:2.06533432;stroke-linecap:round;stroke-linejoin:bevel;stroke-miterlimit:4;stroke-dasharray:none;stroke-dashoffset:0;stroke-opacity:1;paint-order:stroke fill markers"
         d="m 798.36835,1686.3571 h 677.33335 v 394.259 H 798.36835 Z"
         id="rect3446"
         inkscape:connector-curvature="0"
         sodipodi:nodetypes="ccccc" />
    </g>
  </g>
</svg>
